Coordinates
version=1
nRows=7
nColumns=63
inDegrees=yes

Units are S.I. units (second, meters, Newtons, ...)
If the header above contains a line with 'inDegrees', this indicates whether rotational values are in degrees (yes) or radians (no).

endheader
time	pelvis_tilt	pelvis_list	pelvis_rotation	pelvis_tx	pelvis_ty	pelvis_tz	hip_flexion_r	hip_adduction_r	hip_rotation_r	knee_angle_r	knee_angle_r_beta	ankle_angle_r	subtalar_angle_r	mtp_angle_r	hip_flexion_l	hip_adduction_l	hip_rotation_l	knee_angle_l	knee_angle_l_beta	ankle_angle_l	subtalar_angle_l	mtp_angle_l	L5_S1_Flex_Ext	L5_S1_Lat_Bending	L5_S1_axial_rotation	L4_L5_Flex_Ext	L4_L5_Lat_Bending	L4_L5_axial_rotation	L3_L4_Flex_Ext	L3_L4_Lat_Bending	L3_L4_axial_rotation	L2_L3_Flex_Ext	L2_L3_Lat_Bending	L2_L3_axial_rotation	L1_L2_Flex_Ext	L1_L2_Lat_Bending	L1_L2_axial_rotation	L1_T12_Flex_Ext	L1_T12_Lat_Bending	L1_T12_axial_rotation	Abs_r3	Abs_r2	Abs_r1	Abs_t1	Abs_t2	neck_flexion	neck_bending	neck_rotation	arm_flex_r	arm_add_r	arm_rot_r	elbow_flex_r	pro_sup_r	wrist_flex_r	wrist_dev_r	arm_flex_l	arm_add_l	arm_rot_l	elbow_flex_l	pro_sup_l	wrist_flex_l	wrist_dev_l
      8.67924528	     -2.66768619	    -26.25354333	     91.76047541	      0.22196868	      0.86079272	      0.58464295	     19.55876718	     -2.09866319	     -5.44029140	      4.42381838	      0.07721020	     22.00186374	      4.60768089	      0.00000000	     21.17962225	      3.30660032	     -1.46765461	      4.98659591	      0.08703252	     21.44237680	     -4.88766283	      0.00000000	      0.12819755	     -0.08109344	      1.76406062	      0.23807568	     -0.10785427	      1.87431441	      0.21061576	     -0.19717058	      1.87431441	      0.14651698	     -0.19717058	      1.54355304	      0.11904425	     -0.16536573	      1.43329926	      0.07325208	     -0.12561373	      1.32304547	      0.91570230	     -0.91734517	      9.81117596	      0.00000000	      0.00000000	     24.55541647	     -8.47026765	    -19.43839499	     48.04224804	     -2.67206306	      2.90929701	     49.23714013	     71.63770466	    -12.62377618	     12.67198329	      6.80039589	    -12.72279364	   -330.29585680	     96.10649145	     87.31371203	    -25.25027681	     -3.33911894
      8.69811321	     -2.82667403	    -26.09233362	     91.34042359	      0.22253687	      0.86117076	      0.58427648	     19.51918631	     -2.10236788	     -4.73541030	      4.57343727	      0.07982154	     22.01578938	      4.05563412	      0.00000000	     20.98773008	      3.31451839	     -1.50715000	      4.96918946	      0.08672872	     21.33303417	     -5.32229657	      0.00000000	      0.11899013	     -0.09373049	      1.82207698	      0.22097657	     -0.12466155	      1.93595680	      0.19548888	     -0.22789632	      1.93595680	      0.13599382	     -0.22789632	      1.59431736	      0.11049423	     -0.19113522	      1.48043755	      0.06799096	     -0.14518853	      1.36655774	      0.84993460	     -1.06029807	     10.13384556	      0.00000000	      0.00000000	     24.99690726	     -8.74728028	    -19.30994065	     45.97773166	     -2.62004694	      2.48599332	     51.21730058	     73.28507173	    -14.08345176	     13.96267614	      7.40138859	    -13.10843483	   -329.02657789	     94.58590450	     88.02347478	    -28.01079582	     -8.11132610
      8.71698113	     -2.97980800	    -25.95505946	     91.24371844	      0.22279788	      0.86154943	      0.58389648	     19.48220555	     -2.20441313	     -4.48759711	      4.65058202	      0.08116797	     22.38219206	      3.98465411	      0.00000000	     20.86463943	      3.41567491	     -1.54866094	      5.01284171	      0.08749059	     21.25895694	     -5.40929500	      0.00000000	      0.11925924	     -0.11059639	      1.76707603	      0.22147634	     -0.14709320	      1.87751828	      0.19593101	     -0.26890407	      1.87751828	      0.13630139	     -0.26890407	      1.54619152	      0.11074413	     -0.22552816	      1.43574927	      0.06814473	     -0.17131381	      1.32530702	      0.85185686	     -1.25108850	      9.82794674	      0.00000000	      0.00000000	     25.47179408	     -8.74106935	    -18.84520936	     44.23186416	     -2.62132603	      3.12246316	     52.06857156	     73.71961599	    -13.87946504	     14.38513606	      7.28857676	    -13.53203147	   -328.54415556	     93.89714668	     88.56442949	    -28.37975821	     -9.02133545
      8.73584906	     -2.92080012	    -25.85817145	     91.04753621	      0.22304348	      0.86248555	      0.58413440	     19.62296816	     -2.05554442	     -4.05091854	      4.75523493	      0.08299451	     22.50215384	      3.69186081	      0.00000000	     20.79865075	      3.27462901	     -1.48160122	      4.99212087	      0.08712895	     21.03146467	     -5.70649797	      0.00000000	      0.12720409	     -0.09889703	      1.79009465	      0.23623072	     -0.13153305	      1.90197556	      0.20898360	     -0.24045825	      1.90197556	      0.14538156	     -0.24045825	      1.56633282	      0.11812172	     -0.20167083	      1.45445190	      0.07268442	     -0.15319150	      1.34257099	      0.90860612	     -1.11874302	      9.95596941	      0.00000000	      0.00000000	     25.90201074	     -8.06899672	    -17.78337325	     42.31371080	     -2.92755541	      3.58310084	     53.49288097	     76.18924771	    -14.19723483	     17.60704351	      7.91278495	    -13.55757070	   -326.57590642	     91.40421602	     88.54698751	    -31.07128742	    -13.38512528
      8.75471698	     -3.21468945	    -25.73589937	     90.94252666	      0.22322567	      0.86338415	      0.58362697	     19.60024675	     -2.30248164	     -3.84732271	      4.72262817	      0.08242541	     22.96318330	      3.75280073	      0.00000000	     20.66731581	      3.51140306	     -1.51948576	      5.00927874	      0.08742841	     20.78417239	     -5.69324409	      0.00000000	      0.13013383	     -0.13394920	      1.71170204	      0.24167154	     -0.17815243	      1.81868341	      0.21379688	     -0.32568408	      1.81868341	      0.14872996	     -0.32568408	      1.49773928	      0.12084228	     -0.27314921	      1.39075790	      0.07435847	     -0.20748731	      1.28377653	      0.92953297	     -1.51526012	      9.51997322	      0.00000000	      0.00000000	     25.86534762	     -7.65528841	    -17.36822550	     39.90900628	     -3.23312189	      5.09189355	     54.87283141	     77.22613957	    -13.44107422	     17.82259502	      7.73846396	    -13.51126625	   -325.97921303	     90.02050828	     88.53746813	    -31.41585861	    -13.23984941
      8.77358491	     -3.25582994	    -25.68368983	     90.76564613	      0.22358503	      0.86448103	      0.58355406	     19.74996928	     -2.28655526	     -4.01976954	      4.81477089	      0.08403360	     23.16207311	      4.33922257	      0.00000000	     20.57324766	      3.47248702	     -1.53954607	      4.90630347	      0.08563115	     20.51135623	     -5.80536966	      0.00000000	      0.12799940	     -0.14052216	      1.72138745	      0.23770769	     -0.18689448	      1.82897417	      0.21029022	     -0.34166559	      1.82897417	      0.14629052	     -0.34166559	      1.50621402	      0.11886025	     -0.28655280	      1.39862731	      0.07313886	     -0.21766883	      1.29104059	      0.91428695	     -1.58961483	      9.57384060	      0.00000000	      0.00000000	     25.89355447	     -7.11276124	    -17.09297677	     36.86156955	     -3.73640825	      5.69132067	     57.41542524	     83.12061240	    -11.55361731	     19.61283687	      8.48481011	    -13.32228513	   -324.11089859	     88.07659207	     88.28899217	    -33.73922853	    -12.83025470
      8.79245283	     -3.56273620	    -25.52446987	     90.65873247	      0.22353676	      0.86546823	      0.58271009	     19.67836610	     -2.58324469	     -3.81797789	      4.90951187	      0.08568715	     23.43867154	      4.46031987	      0.00000000	     20.39194265	      3.74614666	     -1.69342949	      4.98055932	      0.08692716	     20.12862225	     -5.78771787	      0.00000000	      0.10822564	     -0.17451749	      1.63160321	      0.20098583	     -0.23210827	      1.73357841	      0.17780390	     -0.42432183	      1.73357841	      0.12369108	     -0.42432183	      1.42765281	      0.10049833	     -0.35587607	      1.32567761	      0.06184013	     -0.27032760	      1.22370241	      0.77304491	     -1.97417679	      9.07448757	      0.00000000	      0.00000000	     25.66822296	     -6.62242641	    -16.76086569	     33.78500227	     -4.42551274	      7.98369349	     59.60992866	     83.98858596	    -10.32725417	     18.97347105	      8.22761955	    -12.75883766	   -324.03252003	     86.63602108	     87.80806273	    -33.74291825	    -12.01143735
